# This file uses centimeters as units for non-parametric coordinates.

mtllib CamramObj.mtl
g default
v -3.992690 0.000000 2.012305
v 5.165630 0.388338 1.722498
v -3.992690 3.269242 2.012305
v 5.165630 2.880904 1.722498
v -3.992690 3.269242 -0.772705
v 5.165630 2.880904 -0.482898
v -3.992690 0.000000 -0.772705
v 5.165630 0.388338 -0.482898
v 1.729667 3.269242 2.012305
v 1.729667 3.269242 -0.772705
v 1.729667 0.000000 -0.772705
v 1.729667 0.000000 2.012305
v 3.510590 2.880904 1.722498
v 3.510590 2.880904 -0.482898
v 3.510590 0.388338 -0.482898
v 3.510590 0.388338 1.722498
v 2.088382 2.467498 1.413984
v 2.088382 2.467498 -0.174384
v 2.088382 0.801744 -0.174384
v 2.088382 0.801744 1.413984
v 2.924948 2.467498 1.413984
v 2.924948 2.467498 -0.174384
v 2.924948 0.801744 -0.174384
v 2.924948 0.801744 1.413984
v 5.165630 0.538353 -0.350166
v 5.165630 0.538353 1.589766
v 5.165630 2.730889 -0.350166
v 5.165630 2.730889 1.589766
v 4.956684 0.968594 0.030507
v 4.956684 0.968594 1.209093
v 4.956684 2.300647 0.030507
v 4.956684 2.300647 1.209093
v 0.097616 3.062064 0.987161
v 0.840051 3.062064 0.987161
v -0.112757 5.289864 0.987161
v 0.677660 5.074996 0.987161
v -0.112757 5.289864 -0.017814
v 0.677660 5.074996 -0.017814
v 0.097616 3.062064 -0.017814
v 0.840051 3.062064 -0.017814
v 0.097616 4.672737 0.987161
v 0.097616 4.672737 -0.017814
v 0.840051 4.672737 -0.017814
v 0.840051 4.672737 0.987161
v -2.934674 4.672737 0.987161
v -2.934674 4.672737 -0.017814
v -2.771287 4.992764 0.987161
v -2.771287 4.992764 -0.017814
v -1.871762 5.289864 0.987161
v -2.082135 4.672737 0.987161
v -2.082135 4.672737 -0.017814
v -1.871762 5.289864 -0.017814
v -2.082135 3.151050 0.987161
v -2.082135 3.151050 -0.017814
v -2.934674 3.151050 0.987161
v -2.934674 3.151050 -0.017814
vt 0.375000 0.000000
vt 0.625000 0.000000
vt 0.375000 0.250000
vt 0.625000 0.250000
vt 0.375000 0.500000
vt 0.625000 0.500000
vt 0.375000 0.750000
vt 0.625000 0.750000
vt 0.375000 1.000000
vt 0.625000 1.000000
vt 0.875000 0.000000
vt 0.875000 0.250000
vt 0.125000 0.000000
vt 0.125000 0.250000
vt 0.527583 0.250000
vt 0.527583 0.500000
vt 0.527583 0.750000
vt 0.527583 0.000000
vt 0.527583 1.000000
vt 0.569271 0.250000
vt 0.569271 0.500000
vt 0.569271 0.750000
vt 0.569271 0.000000
vt 0.569271 1.000000
vt 0.528745 0.250000
vt 0.528745 0.500000
vt 0.528745 0.750000
vt 0.528745 0.000000
vt 0.528745 1.000000
vt 0.567857 0.250000
vt 0.567857 0.500000
vt 0.567857 0.750000
vt 0.567857 0.000000
vt 0.567857 1.000000
vt 0.625000 0.000000
vt 0.875000 0.000000
vt 0.875000 0.250000
vt 0.625000 0.250000
vt 0.625000 0.000000
vt 0.875000 0.000000
vt 0.875000 0.250000
vt 0.625000 0.250000
vt 0.375000 0.000000
vt 0.625000 0.000000
vt 0.625000 0.180747
vt 0.375000 0.180747
vt 0.375000 0.250000
vt 0.625000 0.250000
vt 0.625000 0.500000
vt 0.375000 0.500000
vt 0.375000 0.569253
vt 0.625000 0.569253
vt 0.625000 0.750000
vt 0.375000 0.750000
vt 0.875000 0.000000
vt 0.875000 0.180747
vt 0.125000 0.000000
vt 0.125000 0.180747
vt 0.125000 0.180747
vt 0.375000 0.180747
vt 0.375000 0.250000
vt 0.125000 0.250000
vt 0.875000 0.250000
vt 0.375000 0.180747
vt 0.125000 0.180747
vt 0.375000 0.250000
vt 0.125000 0.250000
vt 0.125000 0.250000
vt 0.375000 0.180747
vt 0.125000 0.180747
vt 0.375000 0.180747
vt 0.125000 0.180747
vn 0.000000 0.000000 1.000000
vn 0.032613 0.000000 0.999468
vn 0.000000 0.000000 1.000000
vn 0.046290 0.000000 0.998928
vn 0.000000 1.000000 0.000000
vn 0.083236 0.996530 0.000000
vn 0.000000 1.000000 0.000000
vn 0.062215 0.998063 0.000000
vn 0.000000 0.000000 -1.000000
vn 0.032613 0.000000 -0.999468
vn 0.000000 0.000000 -1.000000
vn 0.046290 0.000000 -0.998928
vn 0.000000 -1.000000 0.000000
vn 0.062215 -0.998063 0.000000
vn 0.000000 -1.000000 0.000000
vn 0.083236 -0.996530 0.000000
vn 1.000000 0.000000 0.000000
vn 1.000000 0.000000 0.000000
vn 1.000000 0.000000 0.000000
vn 1.000000 0.000000 0.000000
vn -1.000000 0.000000 0.000000
vn -1.000000 0.000000 0.000000
vn -1.000000 0.000000 0.000000
vn -1.000000 0.000000 0.000000
vn 0.738238 0.674540 0.000000
vn 0.639194 0.769045 0.000000
vn 0.676664 0.000000 -0.736292
vn 0.553418 0.000000 -0.832903
vn 0.738238 -0.674540 0.000000
vn 0.639194 -0.769046 0.000000
vn 0.676664 0.000000 0.736292
vn 0.553418 0.000000 0.832903
vn -0.122397 0.992481 0.000000
vn 0.000000 1.000000 0.000000
vn -0.145131 0.989412 0.000000
vn 0.000000 1.000000 0.000000
vn -0.078394 0.000000 -0.996922
vn -0.097376 0.000000 -0.995248
vn -0.000000 0.000000 -1.000000
vn -0.000000 0.000000 -1.000000
vn -0.122397 -0.992481 0.000000
vn -0.145131 -0.989412 0.000000
vn 0.000000 -1.000000 0.000000
vn 0.000000 -1.000000 0.000000
vn -0.078394 0.000000 0.996923
vn -0.097376 0.000000 0.995248
vn 0.000000 0.000000 1.000000
vn 0.000000 0.000000 1.000000
vn -0.313941 0.949443 0.000000
vn -0.354594 0.935020 0.000000
vn -0.248444 0.000000 -0.968646
vn -0.289793 0.000000 -0.957090
vn -0.313941 -0.949443 0.000000
vn -0.354594 -0.935020 0.000000
vn -0.248445 0.000000 0.968646
vn -0.289792 0.000000 0.957090
vn 1.000000 0.000003 0.000000
vn 1.000000 -0.000006 0.000000
vn 1.000000 0.000003 0.000000
vn 1.000000 -0.000007 0.000000
vn 1.000000 0.000000 0.000000
vn 1.000000 0.000000 0.000000
vn 1.000000 0.000000 0.000000
vn 1.000000 0.000000 0.000000
vn 1.000000 -0.000001 0.000000
vn 1.000000 -0.000000 0.000000
vn 1.000000 -0.000001 0.000000
vn 1.000000 0.000000 0.000000
vn 1.000000 0.000000 0.000000
vn 1.000000 0.000000 0.000000
vn 1.000000 0.000000 0.000000
vn 1.000000 0.000000 0.000000
vn 0.899531 0.436857 0.000000
vn 0.899531 0.436857 0.000000
vn 0.899531 0.436857 0.000000
vn 0.899531 0.436857 0.000000
vn 0.876628 0.000000 0.481169
vn 0.876628 0.000000 0.481169
vn 0.876628 0.000000 0.481169
vn 0.876628 0.000000 0.481169
vn 0.899531 -0.436857 0.000000
vn 0.899531 -0.436857 0.000000
vn 0.899531 -0.436857 0.000000
vn 0.899531 -0.436857 0.000000
vn 0.876628 0.000000 -0.481169
vn 0.876628 0.000000 -0.481169
vn 0.876628 0.000000 -0.481169
vn 0.876628 0.000000 -0.481170
vn 0.000000 0.000000 1.000000
vn 0.000000 0.000000 1.000000
vn 0.000000 0.000000 1.000000
vn 0.000000 0.000000 1.000000
vn 0.083983 0.996467 0.000000
vn 0.262322 0.964980 0.000000
vn 0.083983 0.996467 0.000000
vn 0.262322 0.964981 0.000000
vn 0.000000 0.000000 -1.000000
vn 0.000000 0.000000 -1.000000
vn 0.000000 0.000000 -1.000000
vn 0.000000 0.000000 -1.000000
vn 1.000000 0.000000 0.000000
vn 1.000000 0.000000 0.000000
vn 0.996762 0.080412 0.000000
vn 0.996762 0.080412 0.000000
vn -1.000000 0.000000 0.000000
vn -1.000000 0.000000 0.000000
vn -1.000000 0.000000 0.000000
vn -1.000000 0.000000 0.000000
vn -0.996088 0.088368 0.000000
vn -0.996088 0.088368 0.000000
vn -0.890639 0.454710 0.000000
vn -0.890639 0.454710 0.000000
vn 0.000000 0.000000 -1.000000
vn 0.000000 0.000000 -1.000000
vn 0.927290 0.374343 0.000000
vn 0.927290 0.374343 0.000000
vn 0.000000 0.000000 1.000000
vn 0.000000 0.000000 1.000000
vn 0.000000 -1.000000 0.000000
vn 0.000000 -1.000000 0.000000
vn 0.000000 -1.000000 0.000000
vn 0.000000 -1.000000 0.000000
vn 0.000000 0.000000 1.000000
vn 0.000000 0.000000 1.000000
vn -0.111062 0.993813 0.000000
vn -0.111062 0.993814 0.000000
vn -0.000000 0.000000 -1.000000
vn -0.000000 0.000000 -1.000000
vn 0.000000 0.000000 1.000000
vn 0.000000 0.000000 1.000000
vn -0.000000 0.000000 -1.000000
vn 0.000000 0.000000 -1.000000
vn -0.313622 0.949548 0.000000
vn -0.313623 0.949548 0.000000
vn 1.000000 0.000000 0.000000
vn 1.000000 0.000000 0.000000
vn 1.000000 0.000000 0.000000
vn 1.000000 0.000000 0.000000
vn 0.000000 0.000000 1.000000
vn 0.000000 0.000000 1.000000
vn -1.000000 0.000000 0.000000
vn -1.000000 0.000000 0.000000
vn 0.000000 0.000000 -1.000000
vn 0.000000 0.000000 -1.000000
s 1
g polySurface1
usemtl initialShadingGroup
f 1/1/1 12/18/2 3/3/3
f 3/3/3 12/18/2 9/15/4
s 2
f 3/3/5 9/15/6 5/5/7
f 5/5/7 9/15/6 10/16/8
s 3
f 5/5/9 10/16/10 7/7/11
f 7/7/11 10/16/10 11/17/12
s 4
f 7/7/13 11/17/14 1/9/15
f 1/9/15 11/17/14 12/19/16
s 5
f 30/39/17 29/40/18 32/42/19
f 32/42/19 29/40/18 31/41/20
s 6
f 7/13/21 1/1/22 5/14/23
f 5/14/23 1/1/22 3/3/24
s 2
f 9/15/6 17/25/25 10/16/8
f 10/16/8 17/25/25 18/26/26
s 3
f 11/17/12 10/16/10 19/27/27
f 19/27/27 10/16/10 18/26/28
s 4
f 12/19/16 11/17/14 20/29/29
f 20/29/29 11/17/14 19/27/30
s 1
f 9/15/4 12/18/2 17/25/31
f 17/25/31 12/18/2 20/28/32
s 2
f 13/20/33 4/4/34 14/21/35
f 14/21/35 4/4/34 6/6/36
s 3
f 15/22/37 14/21/38 8/8/39
f 8/8/39 14/21/38 6/6/40
s 4
f 16/24/41 15/22/42 2/10/43
f 2/10/43 15/22/42 8/8/44
s 1
f 13/20/45 16/23/46 4/4/47
f 4/4/47 16/23/46 2/2/48
s 2
f 17/25/25 21/30/49 18/26/26
f 18/26/26 21/30/49 22/31/50
s 3
f 19/27/27 18/26/28 23/32/51
f 23/32/51 18/26/28 22/31/52
s 4
f 20/29/29 19/27/30 24/34/53
f 24/34/53 19/27/30 23/32/54
s 1
f 17/25/31 20/28/32 21/30/55
f 21/30/55 20/28/32 24/33/56
s 2
f 21/30/49 13/20/33 22/31/50
f 22/31/50 13/20/33 14/21/35
s 3
f 23/32/51 22/31/52 15/22/37
f 15/22/37 22/31/52 14/21/38
s 4
f 24/34/53 23/32/54 16/24/41
f 16/24/41 23/32/54 15/22/42
s 1
f 21/30/55 24/33/56 13/20/45
f 13/20/45 24/33/56 16/23/46
s 11
f 2/2/57 8/11/58 26/35/59
f 26/35/59 8/11/58 25/36/60
s 12
f 8/11/61 6/12/62 25/36/63
f 25/36/63 6/12/62 27/37/64
s 13
f 6/12/65 4/4/66 27/37/67
f 27/37/67 4/4/66 28/38/68
s 14
f 4/4/69 2/2/70 28/38/71
f 28/38/71 2/2/70 26/35/72
s 15
f 26/35/73 25/36/74 30/39/75
f 30/39/75 25/36/74 29/40/76
s 16
f 25/36/77 27/37/78 29/40/79
f 29/40/79 27/37/78 31/41/80
s 17
f 27/37/81 28/38/82 31/41/83
f 31/41/83 28/38/82 32/42/84
s 18
f 28/38/85 26/35/86 32/42/87
f 32/42/87 26/35/86 30/39/88
s 19
f 33/43/89 34/44/90 41/46/91
f 41/46/91 34/44/90 44/45/92
s 20
f 35/47/93 36/48/94 37/50/95
f 37/50/95 36/48/94 38/49/96
s 21
f 42/51/97 43/52/98 39/54/99
f 39/54/99 43/52/98 40/53/100
s 22
f 34/44/101 40/55/102 44/45/103
f 44/45/103 40/55/102 43/56/104
s 23
f 39/57/105 33/43/106 42/58/107
f 42/58/107 33/43/106 41/46/108
s 24
f 46/59/109 45/60/110 48/62/111
f 48/62/111 45/60/110 47/61/112
s 21
f 37/50/113 38/49/114 42/51/97
f 42/51/97 38/49/114 43/52/98
s 22
f 44/45/103 43/56/104 36/48/115
f 36/48/115 43/56/104 38/63/116
s 19
f 44/45/92 36/48/117 41/46/91
f 41/46/91 36/48/117 35/47/118
s 25
f 42/58/119 41/46/120 51/65/121
f 51/65/121 41/46/120 50/64/122
s 19
f 41/46/91 35/47/118 50/64/123
f 50/64/123 35/47/118 49/66/124
s 20
f 35/47/93 37/67/95 49/66/125
f 49/66/125 37/67/95 52/68/126
s 21
f 37/67/113 42/58/97 52/68/127
f 52/68/127 42/58/97 51/65/128
s 19
f 49/66/124 47/61/129 50/64/123
f 50/64/123 47/61/129 45/60/130
s 21
f 52/68/127 51/65/128 48/62/131
f 48/62/131 51/65/128 46/59/132
s 20
f 49/66/125 52/68/126 47/61/133
f 47/61/133 52/68/126 48/62/134
s 26
f 51/65/135 50/64/136 54/70/137
f 54/70/137 50/64/136 53/69/138
s 19
f 50/64/123 45/60/130 53/69/139
f 53/69/139 45/60/130 55/71/140
s 24
f 45/60/110 46/59/109 55/71/141
f 55/71/141 46/59/109 56/72/142
s 21
f 46/59/132 51/65/128 56/72/143
f 56/72/143 51/65/128 54/70/144
